#!OML:ASF X:\für Bonn\!DataBase\2005_08_12_Daniel\c3d\Daniel.ASF
:FULLY-SPECIFIED
:DEGREES
219
root 4.25495 17.5616 -0.0599421 170.883 -61.999 -174.345
lowerback 8.89551 -3.77651 -4.86955
upperback 2.11983 -5.55142 -0.233155
thorax -2.33012 -2.78151 3.057
lowerneck 5.68835 -9.17598 -13.5072
upperneck 18.3763 -16.9418 15.0412
head 7.06552 -8.92944 6.08983
rclavicle -9.04967e-014 -6.36111e-015
rhumerus -74.2364 -50.6879 -18.2681
rradius 7.05163
rwrist 65.8113
rhand -12.5886 10.6738
rfingers 7.12502
rthumb 13.4898 -18.8693
lclavicle -9.04967e-014 -6.36111e-015
lhumerus -41.0185 44.6408 66.1478
lradius 20.9661
lwrist -34.5456
lhand 2.85931 -4.25534
lfingers 7.12502
lthumb 28.3261 23.6223
rfemur -5.63577 -7.77796 13.6461
rtibia 36.9859
rfoot -20.284 -15.8895
rtoes -8.12032
lfemur -6.23731 -14.4728 -14.103
ltibia 32.8047
lfoot -35.0097 39.4414
ltoes -7.10549
220
root 4.33074 17.5478 -0.10818 171.236 -61.1124 -174.745
lowerback 8.78272 -3.79192 -4.80652
upperback 2.14169 -5.56196 -0.279328
thorax -2.25496 -2.7901 2.96529
lowerneck 5.71247 -9.08569 -13.5383
upperneck 18.3465 -16.8253 15.0365
head 7.03429 -8.88181 6.10709
rclavicle -1.75477e-013 1.66979e-014
rhumerus -74.8726 -50.6093 -17.3295
rradius 7.34607
rwrist 66.1973
rhand -12.2838 11.0977
rfingers 7.12502
rthumb 13.7835 -18.4257
lclavicle -1.75477e-013 1.66979e-014
lhumerus -40.6293 44.2693 65.9981
lradius 21.2352
lwrist -34.5988
lhand 2.54647 -4.41138
lfingers 7.12502
lthumb 28.0271 23.5155
rfemur -5.52392 -8.05273 13.2613
rtibia 37.3933
rfoot -20.4291 -16.5308
rtoes -7.95089
lfemur -6.05591 -14.3926 -13.9656
ltibia 32.6601
lfoot -35.5608 39.8322
ltoes -6.67373
221
root 4.40897 17.5343 -0.159891 171.659 -60.2612 -175.188
lowerback 8.62944 -3.82989 -4.79678
upperback 2.16379 -5.60451 -0.317336
thorax -2.1486 -2.81522 2.91065
lowerneck 5.65851 -9.00301 -13.5334
upperneck 18.3734 -16.6856 14.8951
head 7.01707 -8.82028 6.06983
rclavicle -9.08446e-014 2.06736e-014
rhumerus -75.3453 -50.6388 -16.497
rradius 7.59954
rwrist 66.5551
rhand -12.0241 11.5261
rfingers 7.12502
rthumb 14.0338 -17.9802
lclavicle -9.08446e-014 2.06736e-014
lhumerus -40.3413 44.1288 65.6174
lradius 21.4502
lwrist -34.8142
lhand 2.12941 -4.55905
lfingers 7.12502
lthumb 27.6283 23.4324
rfemur -5.44924 -8.32958 12.8527
rtibia 37.7682
rfoot -20.543 -17.1846
rtoes -7.71579
lfemur -5.92997 -14.1809 -13.8089
ltibia 32.522
lfoot -36.0529 40.0766
ltoes -6.36662
222
root 4.48856 17.5197 -0.214286 172.093 -59.4158 -175.66
lowerback 8.5152 -3.87318 -4.81952
upperback 2.15921 -5.65888 -0.345328
thorax -2.08641 -2.84404 2.88965
lowerneck 5.64061 -8.89144 -13.6524
upperneck 18.4122 -16.5369 14.8425
head 7.01387 -8.76189 6.08515
rclavicle -2.88238e-014 7.95139e-016
rhumerus -75.899 -50.5205 -15.6351
rradius 8.02159
rwrist 66.8599
rhand -11.7132 12.1984
rfingers 7.12502
rthumb 14.3334 -17.2869
lclavicle -2.88238e-014 7.95139e-016
lhumerus -40.1528 43.894 65.1908
lradius 21.7081
lwrist -34.6189
lhand 1.70405 -4.64873
lfingers 7.12502
lthumb 27.2215 23.4071
rfemur -5.35761 -8.57036 12.4287
rtibia 38.1106
rfoot -20.7028 -17.8106
rtoes -7.20356
lfemur -5.77899 -14.1614 -13.7076
ltibia 32.4008
lfoot -36.7435 40.3911
ltoes -5.90291
223
root 4.56935 17.5031 -0.272094 172.476 -58.5469 -176.058
lowerback 8.3529 -3.88598 -4.8016
upperback 2.17092 -5.66615 -0.37005
thorax -1.98827 -2.85094 2.84073
lowerneck 5.62802 -8.81332 -13.7049
upperneck 18.3898 -16.4259 14.8122
head 6.99224 -8.71584 6.09387
rclavicle 6.0679e-014 1.82882e-014
rhumerus -76.5486 -50.4612 -14.6651
rradius 8.39886
rwrist 67.1259
rhand -11.5583 12.9707
rfingers 7.12502
rthumb 14.4826 -16.5039
lclavicle 6.0679e-014 1.82882e-014
lhumerus -40.0471 43.8343 64.5741
lradius 21.9563
lwrist -34.5176
lhand 1.30649 -4.75695
lfingers 7.12502
lthumb 26.8412 23.3579
rfemur -5.28347 -8.84794 12.0509
rtibia 38.4313
rfoot -20.8211 -18.3744
rtoes -6.76548
lfemur -5.66169 -13.9101 -13.5175
ltibia 32.2936
lfoot -37.1649 40.6517
ltoes -5.81202
